<svg width="512" height="512" viewBox="0 0 512 512" xmlns="http://www.w3.org/2000/svg">
  <defs>
    <radialGradient id="earthGlow" cx="50%" cy="45%" r="60%">
      <stop offset="0%" stop-color="#dbeafe"></stop>
      <stop offset="45%" stop-color="#60a5fa"></stop>
      <stop offset="80%" stop-color="#1d4ed8"></stop>
      <stop offset="100%" stop-color="#0f172a"></stop>
    </radialGradient>
    <filter id="softGlow">
      <feGaussianBlur stdDeviation="12" result="blur"></feGaussianBlur>
      <feMerge>
        <feMergeNode in="blur"></feMergeNode>
        <feMergeNode in="SourceGraphic"></feMergeNode>
      </feMerge>
    </filter>
  </defs>

  <circle cx="256" cy="256" r="210" fill="url(#earthGlow)" filter="url(#softGlow)" opacity="0.25"></circle>
  <circle cx="256" cy="256" r="180" fill="url(#earthGlow)"></circle>
  <ellipse cx="210" cy="180" rx="70" ry="42" fill="#86efac" opacity="0.9"></ellipse>
  <ellipse cx="290" cy="245" rx="85" ry="58" fill="#65a30d" opacity="0.88"></ellipse>
  <ellipse cx="185" cy="290" rx="55" ry="34" fill="#4ade80" opacity="0.8"></ellipse>
  <ellipse cx="322" cy="168" rx="38" ry="20" fill="#bbf7d0" opacity="0.6"></ellipse>
  <path d="M122 222c38-28 72-18 101 4 18 14 29 27 63 31 33 4 51 29 58 44 9 20 8 47-5 67-19 30-49 48-92 48-50 0-104-31-134-88-22-43-17-84 9-106Z" fill="#1e3a8a" opacity="0.22"></path>
  <circle cx="214" cy="212" r="160" fill="none" stroke="rgba(255,255,255,0.2)" stroke-width="6"></circle>
  <ellipse cx="200" cy="148" rx="84" ry="30" fill="rgba(255,255,255,0.18)" transform="rotate(-18 200 148)"></ellipse>
</svg>